<?xml version="1.0" encoding="UTF-8"?>
<!-- Created with Inkscape (http://www.inkscape.org/) -->
<svg width="50mm" height="50mm" version="1.1" viewBox="0 0 50 50" xmlns="http://www.w3.org/2000/svg">
 <g fill="#fff">
  <path transform="matrix(.26458 0 0 .26458 11.25 3.207)" d="m39.245 50.142c-3.7086 6.5915-18.299-4.5144-25.174-1.3616-6.8747 3.1528-7.9782 21.456-15.393 19.966-7.4149-1.4902-1.3613-18.798-6.4841-24.362-5.1229-5.564-22.871-0.95747-23.745-8.47-0.87404-7.5125 17.458-7.1037 21.166-13.695 3.7086-6.5915-6.157-22.048 0.71776-25.2 6.8747-3.1528 12.151 14.408 19.566 15.898 7.4149 1.4902 19.066-12.669 24.189-7.1047 5.1229 5.564-9.9482 16.008-9.0741 23.521 0.87404 7.5125 17.94 14.218 14.232 20.809z" stroke-linecap="round" stroke-width="26.457"/>
  <path d="m36.24 29.749s-0.46219-4.8687-4.5666-5.393-7.4611 2.5219-7.2171 6.8347c0.24395 4.3128 4.8808 3.4471 8.1155 9.4452 4.984-2.0973 9.71-0.69601 12.49-4.2296 2.7796-3.5336 1.2208-6.7316-1.7208-8.4677-2.9417-1.7361-7.1007 1.8105-7.1007 1.8105z"/>
 </g>
</svg>
