<?xml version="1.0" encoding="UTF-8"?>
<!-- Created with Inkscape (http://www.inkscape.org/) -->
<svg width="160mm" height="65mm" version="1.1" viewBox="0 0 160 65" xmlns="http://www.w3.org/2000/svg">
 <g stroke-width=".67721" aria-label="TO NIE KOŃ,  TO KOBYL! ">
  <path d="m15.7 24.504q0 0.2794-1.5748 0.4572-1.5494 0.1524-3.1242 0.1524-1.5494 0-1.9812-0.127-0.4064-0.1524-0.4064-0.4826v-10.922h-3.5306q-0.2794 0-0.4826-0.7112t-0.2032-2.1082q0-1.4224 0.3048-2.54 0.3048-1.143 0.8128-1.143h13.741q0.381 0 0.508 0.7112 0.1524 0.7112 0.1524 2.0574t-0.2794 2.54-0.762 1.1938h-3.175z"/>
  <path d="m30.026 25.343q-2.1082 0-3.6322-0.381-1.4986-0.4064-2.7686-1.4224-2.5654-2.0066-2.5654-7.6962 0-2.3876 0.6858-4.1656 0.7112-1.778 1.9558-2.8194 2.4384-2.032 6.3246-2.032 2.0066 0 3.4798 0.3556 1.4986 0.3556 2.8194 1.2954 2.667 1.9304 2.667 7.366 0 4.8768-2.413 7.1882t-6.5532 2.3114zm-0.8382-4.3434q0.3048 0.3556 0.8382 0.3556t0.8382-0.3556q0.3048-0.381 0.508-1.5748 0.2032-1.2192 0.2032-3.3782t-0.2032-3.3274-0.508-1.524-0.8382-0.3556-0.8382 0.3556-0.508 1.524-0.2032 3.3274 0.2032 3.3782q0.2032 1.1938 0.508 1.5748z"/>
  <path d="m14.642 25.563q0 0.2794-1.5748 0.4572-1.5494 0.1524-3.1242 0.1524-1.5494 0-1.9812-0.127-0.4064-0.1524-0.4064-0.4826v-10.922h-3.5306q-0.2794 0-0.4826-0.7112t-0.2032-2.1082q0-1.4224 0.3048-2.54 0.3048-1.143 0.8128-1.143h13.741q0.381 0 0.508 0.7112 0.1524 0.7112 0.1524 2.0574t-0.2794 2.54-0.762 1.1938h-3.175z" fill="#fff" stroke="#000"/>
  <path d="m53.444 24.377q0 0.3302-1.5748 0.5334-1.5494 0.2032-3.0988 0.2032t-1.9812-0.1778-0.4318-0.5588v-15.596q0-0.635 1.4478-1.1684 1.4732-0.5334 3.3274-0.5334 0.6604 0 0.9906 0.0508 0.8636 0.127 1.2192 1.0922l2.4384 6.5532h0.1016v-5.9944q0-0.635 1.4478-1.1684 1.4478-0.5334 3.302-0.5334 1.6002 0 2.032 0.6096 0.3048 0.4318 0.3048 0.7874v15.9q0 0.3302-1.5748 0.5334-1.5494 0.2032-3.429 0.2032-1.8542 0-2.032-0.4826l-2.3622-6.2484h-0.127z"/>
  <path d="m28.967 26.401q-2.1082 0-3.6322-0.381-1.4986-0.4064-2.7686-1.4224-2.5654-2.0066-2.5654-7.6962 0-2.3876 0.6858-4.1656 0.7112-1.778 1.9558-2.8194 2.4384-2.032 6.3246-2.032 2.0066 0 3.4798 0.3556 1.4986 0.3556 2.8194 1.2954 2.667 1.9304 2.667 7.366 0 4.8768-2.413 7.1882t-6.5532 2.3114zm-0.8382-4.3434q0.3048 0.3556 0.8382 0.3556t0.8382-0.3556q0.3048-0.381 0.508-1.5748 0.2032-1.2192 0.2032-3.3782t-0.2032-3.3274-0.508-1.524-0.8382-0.3556-0.8382 0.3556-0.508 1.524-0.2032 3.3274 0.2032 3.3782q0.2032 1.1938 0.508 1.5748z" fill="#fff" stroke="#000"/>
  <path d="m72.088 24.504q0 0.2794-1.5494 0.4572-1.5494 0.1524-3.1242 0.1524-1.5494 0-1.9812-0.127-0.4318-0.1524-0.4318-0.4826v-15.799q0-0.5588 1.4732-1.0922 1.4732-0.5588 3.302-0.5588 1.6256 0 2.1336 0.6858 0.1778 0.254 0.1778 0.508z"/>
  <path d="m52.386 25.436q0 0.3302-1.5748 0.5334-1.5494 0.2032-3.0988 0.2032t-1.9812-0.1778-0.4318-0.5588v-15.596q0-0.635 1.4478-1.1684 1.4732-0.5334 3.3274-0.5334 0.6604 0 0.9906 0.0508 0.8636 0.127 1.2192 1.0922l2.4384 6.5532h0.1016v-5.9944q0-0.635 1.4478-1.1684 1.4478-0.5334 3.302-0.5334 1.6002 0 2.032 0.6096 0.3048 0.4318 0.3048 0.7874v15.9q0 0.3302-1.5748 0.5334-1.5494 0.2032-3.429 0.2032-1.8542 0-2.032-0.4826l-2.3622-6.2484h-0.127z" fill="#fff" stroke="#000"/>
  <path d="m86.998 25.114h-10.77q-1.2446 0-1.6764-0.1778t-0.4318-0.5588v-16.078q0-0.6604 0.5842-0.9398 0.6096-0.2794 2.159-0.2794h10.211q0.5334 0 0.5334 1.778 0 1.7526-0.2286 2.6924-0.2286 0.9144-0.6096 0.9144-1.651 0-5.5626-0.3302v1.7018q3.7592-0.1524 4.9022-0.1524 0.6858 0 0.6858 1.6002t-0.2794 2.4384q-0.254 0.8128-0.7112 0.8128l-4.5974-0.1016v1.6256q4.4196-0.3302 6.096-0.3302 0.5334 0 0.5334 1.778t-0.2286 2.6924-0.6096 0.9144z"/>
  <path d="m71.029 25.563q0 0.2794-1.5494 0.4572-1.5494 0.1524-3.1242 0.1524-1.5494 0-1.9812-0.127-0.4318-0.1524-0.4318-0.4826v-15.799q0-0.5588 1.4732-1.0922 1.4732-0.5588 3.302-0.5588 1.6256 0 2.1336 0.6858 0.1778 0.254 0.1778 0.508z" fill="#fff" stroke="#000"/>
  <path d="m102.42 24.327q0 0.3302-1.5748 0.5334-1.5494 0.2032-3.0988 0.2032t-1.9812-0.1778q-0.4318-0.1778-0.4318-0.5588v-15.57q0-0.6604 1.4224-1.1684 1.4478-0.508 3.3274-0.508 1.5494 0 2.0066 0.6096 0.3302 0.4318 0.3302 0.7874v4.191h0.2032q0-0.127 0.762-2.1082 1.4478-3.7338 2.1082-3.7338 1.2446 0 3.5052 0.7366 1.0922 0.3556 1.8796 1.0414 0.7874 0.6604 0.7874 1.4732 0 0.508-1.0414 1.9812-1.016 1.4478-3.0988 3.8862 0.4826 0.508 1.2192 1.2954t1.9558 2.3622q1.2446 1.5494 1.2446 2.2098t-1.1938 1.5494q-1.1938 0.8636-2.54 1.4224-1.3462 0.5334-2.0066 0.5334-0.4318 0-1.1938-1.2954-0.7366-1.3208-1.8034-3.937l-0.7874 0.9398z"/>
  <path d="m85.939 26.172h-10.77q-1.2446 0-1.6764-0.1778t-0.4318-0.5588v-16.078q0-0.6604 0.5842-0.9398 0.6096-0.2794 2.159-0.2794h10.211q0.5334 0 0.5334 1.778 0 1.7526-0.2286 2.6924-0.2286 0.9144-0.6096 0.9144-1.651 0-5.5626-0.3302v1.7018q3.7592-0.1524 4.9022-0.1524 0.6858 0 0.6858 1.6002t-0.2794 2.4384q-0.254 0.8128-0.7112 0.8128l-4.5974-0.1016v1.6256q4.4196-0.3302 6.096-0.3302 0.5334 0 0.5334 1.778t-0.2286 2.6924-0.6096 0.9144z" fill="#fff" stroke="#000"/>
  <path d="m121.92 25.343q-2.1082 0-3.6322-0.381-1.4986-0.4064-2.7686-1.4224-2.5654-2.0066-2.5654-7.6962 0-2.3876 0.6858-4.1656 0.7112-1.778 1.9558-2.8194 2.4384-2.032 6.3246-2.032 2.0066 0 3.4798 0.3556 1.4986 0.3556 2.8194 1.2954 2.667 1.9304 2.667 7.366 0 4.8768-2.413 7.1882t-6.5532 2.3114zm-0.8382-4.3434q0.3048 0.3556 0.8382 0.3556t0.8382-0.3556q0.3048-0.381 0.508-1.5748 0.2032-1.2192 0.2032-3.3782t-0.2032-3.3274-0.508-1.524-0.8382-0.3556-0.8382 0.3556-0.508 1.524-0.2032 3.3274 0.2032 3.3782q0.2032 1.1938 0.508 1.5748z"/>
  <path d="m101.36 25.385q0 0.3302-1.5748 0.5334-1.5494 0.2032-3.0988 0.2032t-1.9812-0.1778q-0.4318-0.1778-0.4318-0.5588v-15.57q0-0.6604 1.4224-1.1684 1.4478-0.508 3.3274-0.508 1.5494 0 2.0066 0.6096 0.3302 0.4318 0.3302 0.7874v4.191h0.2032q0-0.127 0.762-2.1082 1.4478-3.7338 2.1082-3.7338 1.2446 0 3.5052 0.7366 1.0922 0.3556 1.8796 1.0414 0.7874 0.6604 0.7874 1.4732 0 0.508-1.0414 1.9812-1.016 1.4478-3.0988 3.8862 0.4826 0.508 1.2192 1.2954t1.9558 2.3622q1.2446 1.5494 1.2446 2.2098t-1.1938 1.5494q-1.1938 0.8636-2.54 1.4224-1.3462 0.5334-2.0066 0.5334-0.4318 0-1.1938-1.2954-0.7366-1.3208-1.8034-3.937l-0.7874 0.9398z" fill="#fff" stroke="#000"/>
  <path d="m139.75 24.377q0 0.3302-1.5748 0.5334-1.5494 0.2032-3.0988 0.2032t-1.9812-0.1778-0.4318-0.5588v-15.596q0-0.635 1.4478-1.1684 1.4732-0.5334 3.3274-0.5334 0.6604 0 0.9906 0.0508 0.8636 0.127 1.2192 1.0922l2.4384 6.5532h0.1016v-5.9944q0-0.635 1.4478-1.1684 1.4478-0.5334 3.302-0.5334 1.6002 0 2.0066 0.6096 0.3302 0.4318 0.3302 0.7874v15.9q0 0.3302-1.5748 0.5334-1.5494 0.2032-3.429 0.2032-1.8542 0-2.032-0.4826l-2.3622-6.2484h-0.127zm3.5052-22.377q0.5842 0 1.1684 0.9652 0.6096 0.9652 0.6096 2.3876 0 0.381-2.2098 0.6858-2.1844 0.2794-3.6322 0.2794-0.4826 0-0.889-0.6096-0.381-0.6096-0.381-1.397 0-0.8128 1.8796-1.5494 1.905-0.762 3.4544-0.762z"/>
  <path d="m120.86 26.401q-2.1082 0-3.6322-0.381-1.4986-0.4064-2.7686-1.4224-2.5654-2.0066-2.5654-7.6962 0-2.3876 0.6858-4.1656 0.7112-1.778 1.9558-2.8194 2.4384-2.032 6.3246-2.032 2.0066 0 3.4798 0.3556 1.4986 0.3556 2.8194 1.2954 2.667 1.9304 2.667 7.366 0 4.8768-2.413 7.1882t-6.5532 2.3114zm-0.8382-4.3434q0.3048 0.3556 0.8382 0.3556t0.8382-0.3556q0.3048-0.381 0.508-1.5748 0.2032-1.2192 0.2032-3.3782t-0.2032-3.3274-0.508-1.524-0.8382-0.3556-0.8382 0.3556-0.508 1.524-0.2032 3.3274 0.2032 3.3782q0.2032 1.1938 0.508 1.5748z" fill="#fff" stroke="#000"/>
  <path d="m151.62 23.895q-0.1778-0.508-0.1778-1.4478t0.5334-1.5494q0.5334-0.635 2.159-0.635t2.159 0.635q0.5588 0.635 0.5588 1.9304 0 6.1722-4.1656 6.1722-0.381 0-0.762-0.9144-0.3556-0.9144-0.3556-1.4478t0.1778-0.5334q0.508 0 0.8382-0.254 0.3302-0.2286 0.4064-0.4826l0.0762-0.254q-1.016 0-1.4478-1.2192z"/>
  <path d="m138.69 25.436q0 0.3302-1.5748 0.5334-1.5494 0.2032-3.0988 0.2032t-1.9812-0.1778-0.4318-0.5588v-15.596q0-0.635 1.4478-1.1684 1.4732-0.5334 3.3274-0.5334 0.6604 0 0.9906 0.0508 0.8636 0.127 1.2192 1.0922l2.4384 6.5532h0.1016v-5.9944q0-0.635 1.4478-1.1684 1.4478-0.5334 3.302-0.5334 1.6002 0 2.0066 0.6096 0.3302 0.4318 0.3302 0.7874v15.9q0 0.3302-1.5748 0.5334-1.5494 0.2032-3.429 0.2032-1.8542 0-2.032-0.4826l-2.3622-6.2484h-0.127zm3.5052-22.377q0.5842 0 1.1684 0.9652 0.6096 0.9652 0.6096 2.3876 0 0.381-2.2098 0.6858-2.1844 0.2794-3.6322 0.2794-0.4826 0-0.889-0.6096-0.381-0.6096-0.381-1.397 0-0.8128 1.8796-1.5494 1.905-0.762 3.4544-0.762z" fill="#fff" stroke="#000"/>
  <path d="m27.27 56.254q0 0.2794-1.5748 0.4572-1.5494 0.1524-3.1242 0.1524-1.5494 0-1.9812-0.127-0.4064-0.1524-0.4064-0.4826v-10.922h-3.5306q-0.2794 0-0.4826-0.7112t-0.2032-2.1082q0-1.4224 0.3048-2.54 0.3048-1.143 0.8128-1.143h13.741q0.381 0 0.508 0.7112 0.1524 0.7112 0.1524 2.0574t-0.2794 2.54-0.762 1.1938h-3.175z"/>
  <path d="m150.56 24.953q-0.1778-0.508-0.1778-1.4478t0.5334-1.5494q0.5334-0.635 2.159-0.635t2.159 0.635q0.5588 0.635 0.5588 1.9304 0 6.1722-4.1656 6.1722-0.381 0-0.762-0.9144-0.3556-0.9144-0.3556-1.4478t0.1778-0.5334q0.508 0 0.8382-0.254 0.3302-0.2286 0.4064-0.4826l0.0762-0.254q-1.016 0-1.4478-1.2192z" fill="#fff" stroke="#000"/>
  <path d="m41.595 57.093q-2.1082 0-3.6322-0.381-1.4986-0.4064-2.7686-1.4224-2.5654-2.0066-2.5654-7.6962 0-2.3876 0.6858-4.1656 0.7112-1.778 1.9558-2.8194 2.4384-2.032 6.3246-2.032 2.0066 0 3.4798 0.3556 1.4986 0.3556 2.8194 1.2954 2.667 1.9304 2.667 7.366 0 4.8768-2.413 7.1882t-6.5532 2.3114zm-0.8382-4.3434q0.3048 0.3556 0.8382 0.3556t0.8382-0.3556q0.3048-0.381 0.508-1.5748 0.2032-1.2192 0.2032-3.3782t-0.2032-3.3274-0.508-1.524-0.8382-0.3556-0.8382 0.3556-0.508 1.524-0.2032 3.3274 0.2032 3.3782q0.2032 1.1938 0.508 1.5748z"/>
  <path d="m26.211 57.313q0 0.2794-1.5748 0.4572-1.5494 0.1524-3.1242 0.1524-1.5494 0-1.9812-0.127-0.4064-0.1524-0.4064-0.4826v-10.922h-3.5306q-0.2794 0-0.4826-0.7112t-0.2032-2.1082q0-1.4224 0.3048-2.54 0.3048-1.143 0.8128-1.143h13.741q0.381 0 0.508 0.7112 0.1524 0.7112 0.1524 2.0574t-0.2794 2.54-0.762 1.1938h-3.175z" fill="#fff" stroke="#000"/>
  <path d="m146.48 38.555q-0.0254-0.2794 1.4478-0.4318 1.4732-0.1778 3.4544-0.1778t1.9812 0.5842q0 0.7366-0.4572 12.243-0.0254 0.635-0.9144 1.143t-2.5146 0.508q-2.2098 0-2.3114-1.1938zm6.604 17.551q0 1.2954-0.8382 1.778-0.8128 0.508-2.3114 0.508-1.4732 0-2.2606-0.4572-0.7874-0.4318-0.7874-1.8288 0-2.286 3.0988-2.286t3.0988 2.286z"/>
  <path d="m40.537 58.151q-2.1082 0-3.6322-0.381-1.4986-0.4064-2.7686-1.4224-2.5654-2.0066-2.5654-7.6962 0-2.3876 0.6858-4.1656 0.7112-1.778 1.9558-2.8194 2.4384-2.032 6.3246-2.032 2.0066 0 3.4798 0.3556 1.4986 0.3556 2.8194 1.2954 2.667 1.9304 2.667 7.366 0 4.8768-2.413 7.1882t-6.5532 2.3114zm-0.8382-4.3434q0.3048 0.3556 0.8382 0.3556t0.8382-0.3556q0.3048-0.381 0.508-1.5748 0.2032-1.2192 0.2032-3.3782t-0.2032-3.3274-0.508-1.524-0.8382-0.3556-0.8382 0.3556-0.508 1.524-0.2032 3.3274 0.2032 3.3782q0.2032 1.1938 0.508 1.5748z" fill="#fff" stroke="#000"/>
  <path d="m67.131 53.96q0 0.3302-1.5748 0.5334-1.5494 0.2032-3.0988 0.2032t-1.9812-0.1778-0.4318-0.5588v-15.57q0-0.6604 1.4224-1.1684 1.4478-0.508 3.3274-0.508 1.5494 0 2.0066 0.6096 0.3302 0.4318 0.3302 0.7874v4.191h0.2032q0-0.127 0.762-2.1082 1.4478-3.7338 2.1082-3.7338 1.2446 0 3.5052 0.7366 1.0922 0.3556 1.8796 1.0414 0.7874 0.6604 0.7874 1.4732 0 0.508-1.0414 1.9812-1.016 1.4478-3.0988 3.8862 0.4826 0.508 1.2192 1.2954t1.9558 2.3622q1.2446 1.5494 1.2446 2.2098t-1.1938 1.5494q-1.1938 0.8636-2.54 1.4224-1.3462 0.5334-2.0066 0.5334-0.4318 0-1.1938-1.2954-0.7366-1.3208-1.8034-3.937l-0.7874 0.9398z" fill="#0098ff"/>
  <path d="m66.072 55.018q0 0.3302-1.5748 0.5334-1.5494 0.2032-3.0988 0.2032t-1.9812-0.1778-0.4318-0.5588v-15.57q0-0.6604 1.4224-1.1684 1.4478-0.508 3.3274-0.508 1.5494 0 2.0066 0.6096 0.3302 0.4318 0.3302 0.7874v4.191h0.2032q0-0.127 0.762-2.1082 1.4478-3.7338 2.1082-3.7338 1.2446 0 3.5052 0.7366 1.0922 0.3556 1.8796 1.0414 0.7874 0.6604 0.7874 1.4732 0 0.508-1.0414 1.9812-1.016 1.4478-3.0988 3.8862 0.4826 0.508 1.2192 1.2954t1.9558 2.3622q1.2446 1.5494 1.2446 2.2098t-1.1938 1.5494q-1.1938 0.8636-2.54 1.4224-1.3462 0.5334-2.0066 0.5334-0.4318 0-1.1938-1.2954-0.7366-1.3208-1.8034-3.937l-0.7874 0.9398z" fill="#0f5"/>
  <path d="m86.638 54.976q-2.1082 0-3.6322-0.381-1.4986-0.4064-2.7686-1.4224-2.5654-2.0066-2.5654-7.6962 0-2.3876 0.6858-4.1656 0.7112-1.778 1.9558-2.8194 2.4384-2.032 6.3246-2.032 2.0066 0 3.4798 0.3556 1.4986 0.3556 2.8194 1.2954 2.667 1.9304 2.667 7.366 0 4.8768-2.413 7.1882-2.413 2.3114-6.5532 2.3114zm-0.8382-4.3434q0.3048 0.3556 0.8382 0.3556t0.8382-0.3556q0.3048-0.381 0.508-1.5748 0.2032-1.2192 0.2032-3.3782t-0.2032-3.3274-0.508-1.524-0.8382-0.3556-0.8382 0.3556-0.508 1.524-0.2032 3.3274 0.2032 3.3782q0.2032 1.1938 0.508 1.5748z" fill="#0098ff"/>
  <path d="m65.014 56.077q0 0.3302-1.5748 0.5334-1.5494 0.2032-3.0988 0.2032t-1.9812-0.1778-0.4318-0.5588v-15.57q0-0.6604 1.4224-1.1684 1.4478-0.508 3.3274-0.508 1.5494 0 2.0066 0.6096 0.3302 0.4318 0.3302 0.7874v4.191h0.2032q0-0.127 0.762-2.1082 1.4478-3.7338 2.1082-3.7338 1.2446 0 3.5052 0.7366 1.0922 0.3556 1.8796 1.0414 0.7874 0.6604 0.7874 1.4732 0 0.508-1.0414 1.9812-1.016 1.4478-3.0988 3.8862 0.4826 0.508 1.2192 1.2954t1.9558 2.3622q1.2446 1.5494 1.2446 2.2098t-1.1938 1.5494q-1.1938 0.8636-2.54 1.4224-1.3462 0.5334-2.0066 0.5334-0.4318 0-1.1938-1.2954-0.7366-1.3208-1.8034-3.937l-0.7874 0.9398z" fill="#f00"/>
  <path d="m104.95 54.747h-5.5626q-1.27 0-1.7018-0.1778-0.4318-0.1778-0.4318-0.5588v-16.332q0-1.2192 7.3406-1.2192 4.2164 0 5.8166 0.8128 1.6256 0.8382 2.0828 2.1336 0.254 0.762 0.254 1.778 0 1.9812-0.6858 2.9718-0.6604 0.9906-1.4478 1.1176 1.1938 0.254 1.9812 1.1684t0.7874 3.0988q0 2.54-1.5494 3.7592-1.3462 1.0668-4.1148 1.3462-1.1684 0.1016-2.7686 0.1016zm0.0254-11.074q1.2954 0 1.2954-1.7272 0-0.8636-0.3556-1.27-0.3302-0.4318-0.762-0.4318h-0.8128v3.429zm-0.635 7.2898h0.635q1.2954 0 1.2954-1.7272 0-0.8636-0.3556-1.27-0.3302-0.4318-0.762-0.4318h-0.8128z" fill="#0098ff"/>
  <path d="m85.579 56.034q-2.1082 0-3.6322-0.381-1.4986-0.4064-2.7686-1.4224-2.5654-2.0066-2.5654-7.6962 0-2.3876 0.6858-4.1656 0.7112-1.778 1.9558-2.8194 2.4384-2.032 6.3246-2.032 2.0066 0 3.4798 0.3556 1.4986 0.3556 2.8194 1.2954 2.667 1.9304 2.667 7.366 0 4.8768-2.413 7.1882t-6.5532 2.3114zm-0.8382-4.3434q0.3048 0.3556 0.8382 0.3556t0.8382-0.3556q0.3048-0.381 0.508-1.5748 0.2032-1.2192 0.2032-3.3782t-0.2032-3.3274-0.508-1.524-0.8382-0.3556-0.8382 0.3556-0.508 1.524-0.2032 3.3274 0.2032 3.3782q0.2032 1.1938 0.508 1.5748z" fill="#0f5"/>
  <path d="m126.52 54.011q0 0.3302-1.5494 0.5334t-3.0988 0.2032q-1.524 0-1.9812-0.1524-0.4572-0.1778-0.4572-0.5842v-4.4196q-5.0292-10.287-5.0292-11.176 0-0.5334 1.7018-1.1176t3.5814-0.5842q2.413 0 2.5654 1.4224l0.6858 6.8326h0.2794l0.4826-6.6548q0.0508-0.7112 1.8034-1.143 1.7526-0.4572 3.3274-0.4572t2.1844 0.4572 0.6096 0.9652q0 0.4826-5.1054 11.455z" fill="#0098ff"/>
  <path d="m84.521 57.093q-2.1082 0-3.6322-0.381-1.4986-0.4064-2.7686-1.4224-2.5654-2.0066-2.5654-7.6962 0-2.3876 0.6858-4.1656 0.7112-1.778 1.9558-2.8194 2.4384-2.032 6.3246-2.032 2.0066 0 3.4798 0.3556 1.4986 0.3556 2.8194 1.2954 2.667 1.9304 2.667 7.366 0 4.8768-2.413 7.1882t-6.5532 2.3114zm-0.8382-4.3434q0.3048 0.3556 0.8382 0.3556t0.8382-0.3556q0.3048-0.381 0.508-1.5748 0.2032-1.2192 0.2032-3.3782t-0.2032-3.3274-0.508-1.524-0.8382-0.3556-0.8382 0.3556-0.508 1.524-0.2032 3.3274 0.2032 3.3782q0.2032 1.1938 0.508 1.5748z" fill="#f00"/>
  <path d="m135.02 54.747q-1.27 0-1.7018-0.127-0.4318-0.1524-0.4318-0.4826v-15.799q0-0.5588 1.4732-1.0922 1.4732-0.5588 3.302-0.5588 1.6256 0 2.1336 0.6858 0.1778 0.254 0.1778 0.508v11.252q3.0988-0.2032 4.6736-0.2032 0.5334 0 0.5334 1.7018 0 1.6764-0.2286 2.8956t-0.6096 1.2192z" fill="#0098ff"/>
  <path d="m103.89 55.806h-5.5626q-1.27 0-1.7018-0.1778-0.4318-0.1778-0.4318-0.5588v-16.332q0-1.2192 7.3406-1.2192 4.2164 0 5.8166 0.8128 1.6256 0.8382 2.0828 2.1336 0.254 0.762 0.254 1.778 0 1.9812-0.6858 2.9718-0.6604 0.9906-1.4478 1.1176 1.1938 0.254 1.9812 1.1684t0.7874 3.0988q0 2.54-1.5494 3.7592-1.3462 1.0668-4.1148 1.3462-1.1684 0.1016-2.7686 0.1016zm0.0254-11.074q1.2954 0 1.2954-1.7272 0-0.8636-0.3556-1.27-0.3302-0.4318-0.762-0.4318h-0.8128v3.429zm-0.635 7.2898h0.635q1.2954 0 1.2954-1.7272 0-0.8636-0.3556-1.27-0.3302-0.4318-0.762-0.4318h-0.8128z" fill="#0f5"/>
  <path d="m63.956 57.135q0 0.3302-1.5748 0.5334-1.5494 0.2032-3.0988 0.2032t-1.9812-0.1778-0.4318-0.5588v-15.57q0-0.6604 1.4224-1.1684 1.4478-0.508 3.3274-0.508 1.5494 0 2.0066 0.6096 0.3302 0.4318 0.3302 0.7874v4.191h0.2032q0-0.127 0.762-2.1082 1.4478-3.7338 2.1082-3.7338 1.2446 0 3.5052 0.7366 1.0922 0.3556 1.8796 1.0414 0.7874 0.6604 0.7874 1.4732 0 0.508-1.0414 1.9812-1.016 1.4478-3.0988 3.8862 0.4826 0.508 1.2192 1.2954t1.9558 2.3622q1.2446 1.5494 1.2446 2.2098t-1.1938 1.5494q-1.1938 0.8636-2.54 1.4224-1.3462 0.5334-2.0066 0.5334-0.4318 0-1.1938-1.2954-0.7366-1.3208-1.8034-3.937l-0.7874 0.9398z" fill="#fff" stroke="#000"/>
  <path d="m125.46 55.069q0 0.3302-1.5494 0.5334t-3.0988 0.2032q-1.524 0-1.9812-0.1524-0.4572-0.1778-0.4572-0.5842v-4.4196q-5.0292-10.287-5.0292-11.176 0-0.5334 1.7018-1.1176t3.5814-0.5842q2.413 0 2.5654 1.4224l0.6858 6.8326h0.2794l0.4826-6.6548q0.0508-0.7112 1.8034-1.143 1.7526-0.4572 3.3274-0.4572t2.1844 0.4572 0.6096 0.9652q0 0.4826-5.1054 11.455z" fill="#0f5"/>
  <path d="m102.83 56.864h-5.5626q-1.27 0-1.7018-0.1778-0.4318-0.1778-0.4318-0.5588v-16.332q0-1.2192 7.3406-1.2192 4.2164 0 5.8166 0.8128 1.6256 0.8382 2.0828 2.1336 0.254 0.762 0.254 1.778 0 1.9812-0.6858 2.9718-0.6604 0.9906-1.4478 1.1176 1.1938 0.254 1.9812 1.1684t0.7874 3.0988q0 2.54-1.5494 3.7592-1.3462 1.0668-4.1148 1.3462-1.1684 0.1016-2.7686 0.1016zm0.0254-11.074q1.2954 0 1.2954-1.7272 0-0.8636-0.3556-1.27-0.3302-0.4318-0.762-0.4318h-0.8128v3.429zm-0.635 7.2898h0.635q1.2954 0 1.2954-1.7272 0-0.8636-0.3556-1.27-0.3302-0.4318-0.762-0.4318h-0.8128z" fill="#f00"/>
  <path d="m133.97 55.806q-1.27 0-1.7018-0.127-0.4318-0.1524-0.4318-0.4826v-15.799q0-0.5588 1.4732-1.0922 1.4732-0.5588 3.302-0.5588 1.6256 0 2.1336 0.6858 0.1778 0.254 0.1778 0.508v11.252q3.0988-0.2032 4.6736-0.2032 0.5334 0 0.5334 1.7018 0 1.6764-0.2286 2.8956t-0.6096 1.2192z" fill="#0f5"/>
  <path d="m83.463 58.151q-2.1082 0-3.6322-0.381-1.4986-0.4064-2.7686-1.4224-2.5654-2.0066-2.5654-7.6962 0-2.3876 0.6858-4.1656 0.7112-1.778 1.9558-2.8194 2.4384-2.032 6.3246-2.032 2.0066 0 3.4798 0.3556 1.4986 0.3556 2.8194 1.2954 2.667 1.9304 2.667 7.366 0 4.8768-2.413 7.1882t-6.5532 2.3114zm-0.8382-4.3434q0.3048 0.3556 0.8382 0.3556t0.8382-0.3556q0.3048-0.381 0.508-1.5748 0.2032-1.2192 0.2032-3.3782t-0.2032-3.3274-0.508-1.524-0.8382-0.3556-0.8382 0.3556-0.508 1.524-0.2032 3.3274 0.2032 3.3782q0.2032 1.1938 0.508 1.5748z" fill="#fff" stroke="#000"/>
  <path d="m124.4 56.127q0 0.3302-1.5494 0.5334t-3.0988 0.2032q-1.524 0-1.9812-0.1524-0.4572-0.1778-0.4572-0.5842v-4.4196q-5.0292-10.287-5.0292-11.176 0-0.5334 1.7018-1.1176t3.5814-0.5842q2.413 0 2.5654 1.4224l0.6858 6.8326h0.2794l0.4826-6.6548q0.0508-0.7112 1.8034-1.143 1.7526-0.4572 3.3274-0.4572t2.1844 0.4572 0.6096 0.9652q0 0.4826-5.1054 11.455z" fill="#f00"/>
  <path d="m101.78 57.922h-5.5626q-1.27 0-1.7018-0.1778-0.4318-0.1778-0.4318-0.5588v-16.332q0-1.2192 7.3406-1.2192 4.2164 0 5.8166 0.8128 1.6256 0.8382 2.0828 2.1336 0.254 0.762 0.254 1.778 0 1.9812-0.6858 2.9718-0.6604 0.9906-1.4478 1.1176 1.1938 0.254 1.9812 1.1684t0.7874 3.0988q0 2.54-1.5494 3.7592-1.3462 1.0668-4.1148 1.3462-1.1684 0.1016-2.7686 0.1016zm0.0254-11.074q1.2954 0 1.2954-1.7272 0-0.8636-0.3556-1.27-0.3302-0.4318-0.762-0.4318h-0.8128v3.429zm-0.635 7.2898h0.635q1.2954 0 1.2954-1.7272 0-0.8636-0.3556-1.27-0.3302-0.4318-0.762-0.4318h-0.8128z" fill="#fff" stroke="#000"/>
  <path d="m123.34 57.186q0 0.3302-1.5494 0.5334t-3.0988 0.2032q-1.524 0-1.9812-0.1524-0.4572-0.1778-0.4572-0.5842v-4.4196q-5.0292-10.287-5.0292-11.176 0-0.5334 1.7018-1.1176t3.5814-0.5842q2.413 0 2.5654 1.4224l0.6858 6.8326h0.2794l0.4826-6.6548q0.0508-0.7112 1.8034-1.143 1.7526-0.4572 3.3274-0.4572t2.1844 0.4572 0.6096 0.9652q0 0.4826-5.1054 11.455z" fill="#fff" stroke="#000"/>
  <path d="m132.91 56.864q-1.27 0-1.7018-0.127-0.4318-0.1524-0.4318-0.4826v-15.799q0-0.5588 1.4732-1.0922 1.4732-0.5588 3.302-0.5588 1.6256 0 2.1336 0.6858 0.1778 0.254 0.1778 0.508v11.252q3.0988-0.2032 4.6736-0.2032 0.5334 0 0.5334 1.7018 0 1.6764-0.2286 2.8956t-0.6096 1.2192z" fill="#f00"/>
  <path d="m131.85 57.922q-1.27 0-1.7018-0.127-0.4318-0.1524-0.4318-0.4826v-15.799q0-0.5588 1.4732-1.0922 1.4732-0.5588 3.302-0.5588 1.6256 0 2.1336 0.6858 0.1778 0.254 0.1778 0.508v11.252q3.0988-0.2032 4.6736-0.2032 0.5334 0 0.5334 1.7018 0 1.6764-0.2286 2.8956t-0.6096 1.2192z" fill="#fff" stroke="#000"/>
  <path d="m145.42 39.613q-0.0254-0.2794 1.4478-0.4318 1.4732-0.1778 3.4544-0.1778t1.9812 0.5842q0 0.7366-0.4572 12.243-0.0254 0.635-0.9144 1.143t-2.5146 0.508q-2.2098 0-2.3114-1.1938zm6.604 17.551q0 1.2954-0.8382 1.778-0.8128 0.508-2.3114 0.508-1.4732 0-2.2606-0.4572-0.7874-0.4318-0.7874-1.8288 0-2.286 3.0988-2.286t3.0988 2.286z" fill="#fff" stroke="#000"/>
 </g>
</svg>
